<?xml version="1.0" encoding="utf-8"?>
<!-- Generator: Adobe Illustrator 19.0.0, SVG Export Plug-In . SVG Version: 6.00 Build 0)  -->
<svg version="1.1" id="圖層_1" xmlns="http://www.w3.org/2000/svg" xmlns:xlink="http://www.w3.org/1999/xlink" x="0px" y="0px"
	 viewBox="0 0 117.2994232 130.7713928" style="enable-background:new 0 0 117.2994232 130.7713928;" xml:space="preserve">
<style type="text/css">
	.st0{fill:#8DC222;}
	.st1{fill:#0092D7;}
</style>
<path id="XMLID_19_" class="st0" d="M30.784235,37.7601051h27.1460819L49.6323891,49.73283
	c0,0-4.1489639,5.6900101-11.0243912,5.6900101s-7.1023483,0.0727921-7.1023483,0.0727921s-3.7442303-0.4284172-7.183239,4.9829788
	c-2.9875126,4.7009468-4.3254814,7.7467461-4.3254814,7.7467461s-1.8966694,7.7052231,8.7720947,7.7052231
	s27.6202469,0,27.6202469,0s9.4240761,0.1185379,4.3860512,8.0608444
	c-4.9840202,7.8571548-31.1379738,45.7986145-31.1379738,45.7986145s-2.9428062,3.0406189-3.0020771-1.5825043
	c-0.0714226-5.5710144,0-17.1885757,0-17.1885757s-0.1185417-4.7416687,1.659586-7.2310486s6.6383438-9.0091782,6.6383438-9.0091782
	s1.1854172-1.7781296-1.8966713-1.7781296s-12.5654335,0-12.5654335,0s-11.3800163,0-17.6627331-11.7356415
	c-5.6052108-10.470108-1.541044-17.8998184,1.1854184-22.8785744s8.4164696-12.9210625,8.4164696-12.9210625
	S17.0333824,37.7601051,30.784235,37.7601051z"/>
<path id="XMLID_18_" class="st1" d="M86.5151901,93.0112839h-27.14608L67.667038,81.038559
	c0,0,4.1489639-5.6900101,11.0243912-5.6900101s7.1023483-0.0727921,7.1023483-0.0727921s3.7442322,0.428421,7.1832352-4.9829712
	c2.9875183-4.7009506,4.3254852-7.7467537,4.3254852-7.7467537s1.8966675-7.7052193-8.7720947-7.7052193s-27.6202507,0-27.6202507,0
	s-9.4240761-0.1185417-4.3860474-8.0608444c4.9840202-7.8571587,31.1379738-45.7986221,31.1379738-45.7986221
	s2.9428024-3.0406132,3.0020752,1.5825185c0.0714264,5.5710087,0,17.1885681,0,17.1885681s0.1185455,4.7416725-1.659584,7.2310505
	s-6.6383438,9.009182-6.6383438,9.009182s-1.1854172,1.7781258,1.8966675,1.7781258c3.0820923,0,12.5654373,0,12.5654373,0
	s11.3800125,0,17.662735,11.7356415c5.6052094,10.4701118,1.5410385,17.8998184-1.1854172,22.8785782
	c-2.7264633,4.9787521-8.4164734,12.9210587-8.4164734,12.9210587S100.2660446,93.0112839,86.5151901,93.0112839z"/>
</svg>
