<?xml version="1.0" encoding="UTF-8" standalone="no"?>
<svg
   xmlns:dc="http://purl.org/dc/elements/1.1/"
   xmlns:cc="http://creativecommons.org/ns#"
   xmlns:rdf="http://www.w3.org/1999/02/22-rdf-syntax-ns#"
   xmlns:svg="http://www.w3.org/2000/svg"
   xmlns="http://www.w3.org/2000/svg"
   width="180"
   height="88.583115"
   viewBox="0 0 47.625 23.437616"
   version="1.1"
   id="svg8">
  <defs
     id="defs2" />
  <metadata
     id="metadata5">
    <rdf:RDF>
      <cc:Work
         rdf:about="">
        <dc:format>image/svg+xml</dc:format>
        <dc:type
           rdf:resource="http://purl.org/dc/dcmitype/StillImage" />
        <dc:title></dc:title>
      </cc:Work>
    </rdf:RDF>
  </metadata>
  <g
     id="layer1"
     transform="translate(-65.170731,-164.47092)">
    <g
       id="g921"
       transform="matrix(6.3741791,0,0,6.3741791,-350.2392,-883.89617)">
      <g
         id="g6382"
         transform="matrix(0.35277777,0,0,-0.35277777,65.170734,166.67719)"
         style="stroke-width:0.99975;stroke-miterlimit:4;stroke-dasharray:none">
        <path
           d="m 0,0 1.085,1.294 c 0.422,0.502 1.044,0.791 1.697,0.791 h 0.709 c 0.655,0 1.278,0.29 1.699,0.792 l 2.168,2.586 c 0.422,0.502 1.044,0.791 1.7,0.791 h 7.293 L 15.266,4.962 C 14.845,4.459 14.223,4.169 13.566,4.169 h -0.708 c -0.654,0 -1.275,-0.289 -1.697,-0.791 L 8.992,0.792 C 8.571,0.29 7.948,0 7.293,0 Z"
           style="fill:#38b035;fill-opacity:1;fill-rule:nonzero;stroke:none;stroke-width:0.99975;stroke-miterlimit:4;stroke-dasharray:none"
           id="path6384" />
      </g>
      <g
         id="g6386"
         transform="matrix(0.35277777,0,0,-0.35277777,66.874015,168.14788)"
         style="stroke-width:0.99975;stroke-miterlimit:4;stroke-dasharray:none">
        <path
           d="m 0,0 1.085,1.293 c 0.422,0.501 1.043,0.791 1.698,0.791 h 0.708 c 0.655,0 1.278,0.29 1.698,0.792 l 2.17,2.587 c 0.422,0.502 1.043,0.791 1.699,0.791 h 7.293 L 15.266,4.961 C 14.845,4.459 14.223,4.169 13.567,4.169 h -0.709 c -0.654,0 -1.275,-0.29 -1.697,-0.792 L 8.991,0.792 C 8.571,0.289 7.949,0 7.294,0 Z"
           style="fill:#007ab0;fill-opacity:1;fill-rule:nonzero;stroke:none;stroke-width:0.99975;stroke-miterlimit:4;stroke-dasharray:none"
           id="path6388" />
      </g>
    </g>
  </g>
</svg>
